<svg xmlns="http://www.w3.org/2000/svg" version="1.1" xmlns:xlink="http://www.w3.org/1999/xlink" xmlns:svgjs="http://svgjs.dev/svgjs" width="61.056000000000004" height="48.96"><svg xmlns="http://www.w3.org/2000/svg" xmlns:xlink="http://www.w3.org/1999/xlink" viewBox="0 0 61.056000000000004 48.96"><path transform="translate(0.504 47.52)" d="M13.46-0.94L13.46-0.94Q8.21-0.94 4.75-7.13L4.75-7.13Q1.94-12.02 0.58-20.16L0.58-20.16Q-0.50-26.57-0.50-31.68L-0.50-31.68L-0.50-36.00Q0.29-37.80 1.48-38.81Q2.66-39.82 4.82-39.82L4.82-39.82Q7.63-39.82 9.50-36.72L9.50-36.72Q10.30-35.28 11.66-30.96L11.66-30.96Q12.60-27.86 13.46-27.86L13.46-27.86Q14.54-27.86 15.34-31.39L15.34-31.39Q16.34-36.22 17.21-37.80L17.21-37.80Q19.08-41.26 22.54-41.26L22.54-41.26Q26.21-41.26 27.86-37.44L27.86-37.44L27.86-33.62Q27.86-28.15 26.71-21.74L26.71-21.74Q25.20-13.03 22.32-7.70L22.32-7.70Q18.72-0.94 13.46-0.94ZM39.96 1.44L39.96 1.44L36.07 1.44Q33.70 0.86 32.76-2.88L32.76-2.88Q32.76-5.40 32.26-12.96Q31.75-20.52 31.75-23.04L31.75-23.04Q31.61-28.87 28.01-31.75L28.01-31.75Q27.07-32.47 26.35-33.12L26.35-33.12Q24.55-34.63 24.55-36.50L24.55-36.50Q24.55-41.62 32.04-44.93L32.04-44.93Q38.02-47.52 43.78-47.52L43.78-47.52Q49.82-47.52 54.65-44.86L54.65-44.86Q60.55-41.54 60.55-36.00L60.55-36.00Q60.55-33.34 58.90-29.66Q57.24-25.99 57.24-23.98L57.24-23.98Q57.24-22.18 58.43-19.44Q59.62-16.70 59.62-14.90L59.62-14.90Q59.62-7.13 53.42-2.59L53.42-2.59Q47.88 1.44 39.96 1.44ZM46.15-11.02L46.15-11.02Q47.23-11.02 47.92-11.92Q48.60-12.82 48.60-13.90L48.60-13.90Q48.60-16.34 46.66-16.34L46.66-16.34Q45.58-16.34 44.93-15.44Q44.28-14.54 44.28-13.46L44.28-13.46Q44.28-11.02 46.15-11.02ZM45.22-30.24L45.22-30.24Q46.30-30.24 46.94-31.32Q47.59-32.40 47.59-33.12L47.59-33.12Q47.59-33.84 46.76-34.45Q45.94-35.06 45.22-35.06L45.22-35.06Q43.27-35.06 43.27-32.62L43.27-32.62Q43.27-30.24 45.22-30.24Z"></path></svg><style>@media (prefers-color-scheme: light) { :root { filter: none; } }
@media (prefers-color-scheme: dark) { :root { filter: none; } }
</style></svg>